<?xml version="1.0" encoding="UTF-8" standalone="no"?>
<!-- Created with Inkscape (http://www.inkscape.org/) -->

<svg
   xmlns:dc="http://purl.org/dc/elements/1.1/"
   xmlns:cc="http://creativecommons.org/ns#"
   xmlns:rdf="http://www.w3.org/1999/02/22-rdf-syntax-ns#"
   xmlns:svg="http://www.w3.org/2000/svg"
   xmlns="http://www.w3.org/2000/svg"
   xmlns:sodipodi="http://sodipodi.sourceforge.net/DTD/sodipodi-0.dtd"
   xmlns:inkscape="http://www.inkscape.org/namespaces/inkscape"
   width="744.09003"
   height="600.35999"
   id="svg2"
   version="1.1"
   inkscape:version="0.48.4 r9939"
   sodipodi:docname="sol.svg">
  <defs
     id="defs4">
    <filter
       inkscape:collect="always"
       id="filter3763"
       x="-0.11994317"
       width="1.2398863"
       y="-0.12606272"
       height="1.2521254"
       color-interpolation-filters="sRGB">
      <feGaussianBlur
         inkscape:collect="always"
         stdDeviation="14.707317"
         id="feGaussianBlur3765" />
    </filter>
    <filter
       color-interpolation-filters="sRGB"
       inkscape:collect="always"
       id="filter3912-4">
      <feGaussianBlur
         inkscape:collect="always"
         stdDeviation="7.3174543"
         id="feGaussianBlur3914-0" />
    </filter>
    <filter
       color-interpolation-filters="sRGB"
       inkscape:collect="always"
       id="filter3912-4-2">
      <feGaussianBlur
         inkscape:collect="always"
         stdDeviation="7.3174543"
         id="feGaussianBlur3914-0-7" />
    </filter>
    <filter
       color-interpolation-filters="sRGB"
       inkscape:collect="always"
       id="filter3763-2"
       x="-0.11994317"
       width="1.2398863"
       y="-0.12606272"
       height="1.2521254">
      <feGaussianBlur
         inkscape:collect="always"
         stdDeviation="14.707317"
         id="feGaussianBlur3765-1" />
    </filter>
    <filter
       inkscape:collect="always"
       id="filter4278"
       x="-0.21941872"
       width="1.4388374"
       y="-0.097210829"
       height="1.1944217">
      <feGaussianBlur
         inkscape:collect="always"
         stdDeviation="6.464686"
         id="feGaussianBlur4280" />
    </filter>
    <filter
       inkscape:collect="always"
       id="filter4286"
       x="-0.16675823"
       width="1.3335165"
       y="-0.07388023"
       height="1.1477605">
      <feGaussianBlur
         inkscape:collect="always"
         stdDeviation="4.9131614"
         id="feGaussianBlur4288" />
    </filter>
    <filter
       inkscape:collect="always"
       id="filter4364"
       x="-0.11368454"
       width="1.2273691"
       y="-0.11948477"
       height="1.2389695">
      <feGaussianBlur
         inkscape:collect="always"
         stdDeviation="13.939889"
         id="feGaussianBlur4366" />
    </filter>
  </defs>
  <sodipodi:namedview
     id="base"
     pagecolor="#ffffff"
     bordercolor="#666666"
     borderopacity="1.0"
     inkscape:pageopacity="0.0"
     inkscape:pageshadow="2"
     inkscape:zoom="0.7"
     inkscape:cx="406.99955"
     inkscape:cy="340.6812"
     inkscape:document-units="px"
     inkscape:current-layer="layer1"
     showgrid="false"
     inkscape:window-width="1018"
     inkscape:window-height="705"
     inkscape:window-x="0"
     inkscape:window-y="0"
     inkscape:window-maximized="1" />
  <metadata
     id="metadata7">
    <rdf:RDF>
      <cc:Work
         rdf:about="">
        <dc:format>image/svg+xml</dc:format>
        <dc:type
           rdf:resource="http://purl.org/dc/dcmitype/StillImage" />
        <dc:title />
      </cc:Work>
    </rdf:RDF>
  </metadata>
  <g
     inkscape:label="Layer 1"
     inkscape:groupmode="layer"
     id="layer1"
     transform="translate(0,-452.00201)">
    <path
       sodipodi:type="arc"
       style="opacity:0.43781098;fill:#4d4d4d;fill-opacity:0.75739644;fill-rule:evenodd;stroke:none;filter:url(#filter3763-2)"
       id="path2985-1"
       sodipodi:cx="441.42856"
       sodipodi:cy="303.79074"
       sodipodi:rx="147.14285"
       sodipodi:ry="140"
       d="m 588.57141,303.79074 c 0,77.31987 -65.8781,140 -147.14285,140 -81.26476,0 -147.14285,-62.68013 -147.14285,-140 0,-77.31986 65.87809,-140 147.14285,-140 81.26475,0 147.14285,62.68014 147.14285,140 z"
       transform="translate(-73.71427,-109.14284)" />
    <path
       style="opacity:0.85079603;fill:#999999;fill-opacity:1;fill-rule:evenodd;stroke:none;filter:url(#filter3912-4-2)"
       d="m 487.84599,676.21486 c -39.99439,0 -73.29521,28.35152 -80.625,65.875 -9.06683,-6.40959 -19.87639,-10.15625 -31.50002,-10.15625 -31.95362,0 -57.87499,28.12871 -57.87499,62.84375 0,34.71504 25.92137,62.875 57.87499,62.875 8.46321,0 16.47325,-1.98365 23.71875,-5.53125 7.46561,37.3526 40.69038,65.53125 80.56252,65.53125 35.78278,0 66.20533,-22.69318 77.46875,-54.34375 11.07309,5.51203 23.57734,8.625 36.8125,8.625 45.36625,0 82.15625,-36.46574 82.15625,-81.4375 0,-44.97176 -36.79,-81.40625 -82.15625,-81.40625 -12.62589,0 -24.59363,2.8297 -35.28125,7.875 -14.2009,-24.34669 -40.74603,-40.75 -71.15625,-40.75 z"
       id="path3849-6-1"
       inkscape:connector-curvature="0" />
    <path
       style="opacity:0.85079603;fill:#999999;fill-opacity:1;fill-rule:evenodd;stroke:none;filter:url(#filter3912-4)"
       d="m 250.70313,653.072 c -39.99439,0 -73.29521,28.35152 -80.625,65.875 -9.06682,-6.40959 -19.87638,-10.15625 -31.50001,-10.15625 -31.95362,0 -57.874995,28.12871 -57.874995,62.84375 0,34.71504 25.921375,62.875 57.874995,62.875 8.46321,0 16.47325,-1.98365 23.71875,-5.53125 7.4656,37.3526 40.69037,65.53125 80.56251,65.53125 35.78278,0 66.20533,-22.69318 77.46875,-54.34375 11.07309,5.51203 23.57734,8.625 36.8125,8.625 45.36625,0 82.15625,-36.46574 82.15625,-81.4375 0,-44.97176 -36.79,-81.40625 -82.15625,-81.40625 -12.62589,0 -24.59363,2.8297 -35.28125,7.875 -14.2009,-24.34669 -40.74603,-40.75 -71.15625,-40.75 z"
       id="path3849-6"
       inkscape:connector-curvature="0" />
    <path
       sodipodi:type="arc"
       style="opacity:0.43781098;fill:#ff6600;fill-opacity:0.75739644;fill-rule:evenodd;stroke:none;filter:url(#filter3763)"
       id="path2985"
       sodipodi:cx="441.42856"
       sodipodi:cy="303.79074"
       sodipodi:rx="147.14285"
       sodipodi:ry="140"
       d="m 588.57141,303.79074 c 0,77.31987 -65.8781,140 -147.14285,140 -81.26476,0 -147.14285,-62.68013 -147.14285,-140 0,-77.31986 65.87809,-140 147.14285,-140 81.26475,0 147.14285,62.68014 147.14285,140 z"
       transform="translate(-69.282111,346.37271)" />
    <path
       transform="matrix(0.89037517,0,0,0.88590828,-20.890576,381.03271)"
       sodipodi:type="arc"
       style="opacity:0.91044778000000004;fill:#fbfa3c;fill-opacity:1;fill-rule:evenodd;stroke:#000000;stroke-opacity:1;filter:url(#filter4364)"
       id="path2985-9"
       sodipodi:cx="441.42856"
       sodipodi:cy="303.79074"
       sodipodi:rx="147.14285"
       sodipodi:ry="140"
       d="m 588.57141,303.79074 c 0,77.31987 -65.8781,140 -147.14285,140 -81.26476,0 -147.14285,-62.68013 -147.14285,-140 0,-77.31986 65.87809,-140 147.14285,-140 81.26475,0 147.14285,62.68014 147.14285,140 z" />
    <path
       style="opacity:0.62871287;fill:#3c92fb;fill-opacity:1;fill-rule:evenodd;stroke:#000000;stroke-opacity:1"
       d="m 249.73726,635.55283 c -39.99439,0 -73.29521,28.35152 -80.625,65.875 -9.06681,-6.40959 -19.87637,-10.15625 -31.5,-10.15625 -31.95362,0 -57.874997,28.12871 -57.874997,62.84375 0,34.71504 25.921377,62.875 57.874997,62.875 8.46321,0 16.47325,-1.98365 23.71875,-5.53125 7.4656,37.3526 40.69036,65.53125 80.5625,65.53125 35.78278,0 66.20533,-22.69318 77.46875,-54.34375 11.07309,5.51203 23.57734,8.625 36.8125,8.625 45.36625,0 82.15625,-36.46574 82.15625,-81.4375 0,-44.97176 -36.79,-81.40625 -82.15625,-81.40625 -12.62589,0 -24.59363,2.8297 -35.28125,7.875 -14.2009,-24.34669 -40.74603,-40.75 -71.15625,-40.75 z"
       id="path3849"
       inkscape:connector-curvature="0" />
    <path
       sodipodi:type="arc"
       style="fill:#ffffff;fill-opacity:1;fill-rule:evenodd;stroke:none;stroke-opacity:1"
       id="path3916"
       sodipodi:cx="77.781746"
       sodipodi:cy="786.69208"
       sodipodi:rx="35.355339"
       sodipodi:ry="79.802048"
       d="m 113.13708,786.69208 c 0,44.07345 -15.82912,79.80205 -35.355334,79.80205 -19.526215,0 -35.355339,-35.7286 -35.355339,-79.80205 0,-44.07346 15.829124,-79.80205 35.355339,-79.80205 19.526214,0 35.355334,35.72859 35.355334,79.80205 z"
       transform="matrix(0.63685476,0,0,0.26949259,384.23818,413.96052)" />
    <path
       sodipodi:type="arc"
       style="fill:#ffffff;fill-opacity:1;fill-rule:evenodd;stroke:none;stroke-opacity:1"
       id="path3916-1"
       sodipodi:cx="77.781746"
       sodipodi:cy="786.69208"
       sodipodi:rx="35.355339"
       sodipodi:ry="79.802048"
       d="m 113.13708,786.69208 c 0,44.07345 -15.82912,79.80205 -35.355334,79.80205 -19.526215,0 -35.355339,-35.7286 -35.355339,-79.80205 0,-44.07346 15.829124,-79.80205 35.355339,-79.80205 19.526214,0 35.355334,35.72859 35.355334,79.80205 z"
       transform="matrix(0.63685476,0,0,0.26949259,308.89516,406.81765)" />
    <path
       sodipodi:type="arc"
       style="fill:#000000;fill-opacity:1;fill-rule:evenodd;stroke:#000000;stroke-opacity:1"
       id="path3916-1-0"
       sodipodi:cx="77.781746"
       sodipodi:cy="786.69208"
       sodipodi:rx="35.355339"
       sodipodi:ry="79.802048"
       d="m 113.13708,786.69208 c 0,44.07345 -15.82912,79.80205 -35.355334,79.80205 -19.526215,0 -35.355339,-35.7286 -35.355339,-79.80205 0,-44.07346 15.829124,-79.80205 35.355339,-79.80205 19.526214,0 35.355334,35.72859 35.355334,79.80205 z"
       transform="matrix(0.39639773,0,0,0.18981315,323.88539,474.41038)" />
    <path
       sodipodi:type="arc"
       style="fill:#000000;fill-opacity:1;fill-rule:evenodd;stroke:#000000;stroke-opacity:1"
       id="path3916-1-0-5"
       sodipodi:cx="77.781746"
       sodipodi:cy="786.69208"
       sodipodi:rx="35.355339"
       sodipodi:ry="79.802048"
       d="m 113.13708,786.69208 c 0,44.07345 -15.82912,79.80205 -35.355334,79.80205 -19.526215,0 -35.355339,-35.7286 -35.355339,-79.80205 0,-44.07346 15.829124,-79.80205 35.355339,-79.80205 19.526214,0 35.355334,35.72859 35.355334,79.80205 z"
       transform="matrix(0.39639773,0,0,0.18981315,403.31395,482.83895)" />
    <path
       sodipodi:type="arc"
       style="fill:#b3b3b3;fill-opacity:1;fill-rule:evenodd;stroke:#000000;stroke-opacity:1;filter:url(#filter4286)"
       id="path3916-1-0-0"
       sodipodi:cx="77.781746"
       sodipodi:cy="786.69208"
       sodipodi:rx="35.355339"
       sodipodi:ry="79.802048"
       d="m 113.13708,786.69208 c 0,44.07345 -15.82912,79.80205 -35.355334,79.80205 -19.526215,0 -35.355339,-35.7286 -35.355339,-79.80205 0,-44.07346 15.829124,-79.80205 35.355339,-79.80205 19.526214,0 35.355334,35.72859 35.355334,79.80205 z"
       transform="matrix(0.19625397,0,0,0.10114186,337.71831,548.85049)" />
    <path
       sodipodi:type="arc"
       style="fill:#b3b3b3;fill-opacity:1;fill-rule:evenodd;stroke:#000000;stroke-opacity:1;filter:url(#filter4278)"
       id="path3916-1-0-0-1"
       sodipodi:cx="77.781746"
       sodipodi:cy="786.69208"
       sodipodi:rx="35.355339"
       sodipodi:ry="79.802048"
       d="m 113.13708,786.69208 c 0,44.07345 -15.82912,79.80205 -35.355334,79.80205 -19.526215,0 -35.355339,-35.7286 -35.355339,-79.80205 0,-44.07346 15.829124,-79.80205 35.355339,-79.80205 19.526214,0 35.355334,35.72859 35.355334,79.80205 z"
       transform="matrix(0.19625397,0,0,0.10114186,417.45291,558.88167)" />
    <path
       style="opacity:0.64851485;fill:#3c92fb;fill-opacity:1;fill-rule:evenodd;stroke:#000000;stroke-opacity:1"
       d="m 486.21436,660.04365 c -39.99439,0 -73.29521,28.35152 -80.625,65.875 -9.06681,-6.40959 -19.87637,-10.15625 -31.5,-10.15625 -31.95362,0 -57.875,28.12871 -57.875,62.84375 0,34.71504 25.92138,62.875 57.875,62.875 8.46321,0 16.47325,-1.98365 23.71875,-5.53125 7.4656,37.3526 40.69036,65.53125 80.5625,65.53125 35.78278,0 66.20533,-22.69318 77.46875,-54.34375 11.07309,5.51203 23.57734,8.625 36.8125,8.625 45.36625,0 82.15625,-36.46574 82.15625,-81.4375 0,-44.97176 -36.79,-81.40625 -82.15625,-81.40625 -12.62589,0 -24.59363,2.8297 -35.28125,7.875 -14.2009,-24.34669 -40.74603,-40.75 -71.15625,-40.75 z"
       id="path3849-4"
       inkscape:connector-curvature="0" />
  </g>
</svg>
